<svg width="44" height="44" viewBox="0 0 44 44" fill="none" xmlns="http://www.w3.org/2000/svg">
    <rect x="5.44824" y="5.44824" width="33.1034" height="33.1034" rx="16.5517" fill="#7EBC0A"/>
    <rect x="2.94824" y="2.94824" width="38.1034" height="38.1034" rx="19.0517" stroke="#7EBC0A" stroke-opacity="0.3" stroke-width="5"/>
    <path fill-rule="evenodd" clip-rule="evenodd" d="M21.9992 17.1724C21.6183 17.1724 21.3096 17.4811 21.3096 17.862V21.3103H17.8615C17.4806 21.3103 17.1719 21.6191 17.1719 22C17.1719 22.3808 17.4806 22.6896 17.8615 22.6896H21.3096V26.1379C21.3096 26.5188 21.6183 26.8275 21.9992 26.8275C22.3801 26.8275 22.6889 26.5188 22.6889 26.1379V22.6896H26.1374C26.5183 22.6896 26.827 22.3808 26.827 22C26.827 21.6191 26.5183 21.3103 26.1374 21.3103H22.6889V17.862C22.6889 17.4811 22.3801 17.1724 21.9992 17.1724Z" fill="white"/>
    <path d="M21.3096 21.3103V21.8103H21.8096V21.3103H21.3096ZM21.3096 22.6896H21.8096V22.1896H21.3096V22.6896ZM22.6889 22.6896V22.1896H22.1889V22.6896H22.6889ZM22.6889 21.3103H22.1889V21.8103H22.6889V21.3103ZM21.8096 17.862C21.8096 17.7573 21.8945 17.6724 21.9992 17.6724V16.6724C21.3422 16.6724 20.8096 17.205 20.8096 17.862H21.8096ZM21.8096 21.3103V17.862H20.8096V21.3103H21.8096ZM17.8615 21.8103H21.3096V20.8103H17.8615V21.8103ZM17.6719 22C17.6719 21.8952 17.7568 21.8103 17.8615 21.8103V20.8103C17.2045 20.8103 16.6719 21.3429 16.6719 22H17.6719ZM17.8615 22.1896C17.7568 22.1896 17.6719 22.1047 17.6719 22H16.6719C16.6719 22.657 17.2045 23.1896 17.8615 23.1896V22.1896ZM21.3096 22.1896H17.8615V23.1896H21.3096V22.1896ZM21.8096 26.1379V22.6896H20.8096V26.1379H21.8096ZM21.9992 26.3275C21.8945 26.3275 21.8096 26.2426 21.8096 26.1379H20.8096C20.8096 26.7949 21.3422 27.3275 21.9992 27.3275V26.3275ZM22.1889 26.1379C22.1889 26.2426 22.104 26.3275 21.9992 26.3275V27.3275C22.6563 27.3275 23.1889 26.7949 23.1889 26.1379H22.1889ZM22.1889 22.6896V26.1379H23.1889V22.6896H22.1889ZM26.1374 22.1896H22.6889V23.1896H26.1374V22.1896ZM26.327 22C26.327 22.1047 26.2421 22.1896 26.1374 22.1896V23.1896C26.7944 23.1896 27.327 22.657 27.327 22H26.327ZM26.1374 21.8103C26.2421 21.8103 26.327 21.8952 26.327 22H27.327C27.327 21.3429 26.7944 20.8103 26.1374 20.8103V21.8103ZM22.6889 21.8103H26.1374V20.8103H22.6889V21.8103ZM22.1889 17.862V21.3103H23.1889V17.862H22.1889ZM21.9992 17.6724C22.104 17.6724 22.1889 17.7573 22.1889 17.862H23.1889C23.1889 17.205 22.6563 16.6724 21.9992 16.6724V17.6724Z" fill="white"/>
</svg>